{
  "accessors": [
    {
      "bufferView": 2,
      "componentType": 5126,
      "count": 3,
      "max": [
        0.2318410873413086,
        5.413741111755371,
        6.032301902770996
      ],
      "min": [
        0.21434903144836426,
        5.378760814666748,
        6.013315200805664
      ],
      "type": "VEC3"
    },
    {
      "bufferView": 2,
      "byteOffset": 36,
      "componentType": 5126,
      "count": 3,
      "max": [
        0.8737318515777588,
        0.3058429956436157,
        0.3782230615615845
      ],
      "min": [
        0.8737318515777588,
        0.3058429956436157,
        0.3782230615615845
      ],
      "type": "VEC3"
    },
    {
      "bufferView": 3,
      "componentType": 5126,
      "count": 3,
      "max": [
        -0.04033772274851799,
        0.8204659819602966,
        -0.5702704787254333,
        1.0
      ],
      "min": [
        -0.04033772274851799,
        0.8204659819602966,
        -0.5702704787254333,
        1.0
      ],
      "type": "VEC4"
    },
    {
      "bufferView": 1,
      "componentType": 5126,
      "count": 3,
      "max": [
        0.27379998564720154,
        0.1988839954137802
      ],
      "min": [
        0.2714639902114868,
        0.19630099833011627
      ],
      "type": "VEC2"
    },
    {
      "bufferView": 0,
      "componentType": 5125,
      "count": 3,
      "type": "SCALAR"
    },
    {
      "bufferView": 2,
      "byteOffset": 72,
      "componentType": 5126,
      "count": 3,
      "max": [
        1.9546550512313843,
        1.2220258712768555,
        11.068803787231445
      ],
      "min": [
        1.9536540508270264,
        1.186466932296753,
        11.020426750183105
      ],
      "type": "VEC3"
    },
    {
      "bufferView": 2,
      "byteOffset": 108,
      "componentType": 5126,
      "count": 3,
      "max": [
        0.9992300271987915,
        -0.021908093243837357,
        -0.032549720257520676
      ],
      "min": [
        0.9992300271987915,
        -0.021908093243837357,
        -0.032549720257520676
      ],
      "type": "VEC3"
    },
    {
      "bufferView": 1,
      "byteOffset": 24,
      "componentType": 5126,
      "count": 3,
      "max": [
        0.0,
        0.0
      ],
      "min": [
        0.0,
        0.0
      ],
      "type": "VEC2"
    },
    {
      "bufferView": 0,
      "byteOffset": 12,
      "componentType": 5125,
      "count": 3,
      "type": "SCALAR"
    },
    {
      "bufferView": 2,
      "byteOffset": 144,
      "componentType": 5126,
      "count": 8661,
      "max": [
        4.694525718688965,
        5.41471004486084,
        13.11553955078125
      ],
      "min": [
        0.0,
        0.0,
        0.0
      ],
      "type": "VEC3"
    },
    {
      "bufferView": 2,
      "byteOffset": 104076,
      "componentType": 5126,
      "count": 8661,
      "max": [
        0.9999516010284424,
        0.9997132420539856,
        0.9999756217002869
      ],
      "min": [
        -0.999969482421875,
        -0.9998645186424255,
        -0.9996165037155151
      ],
      "type": "VEC3"
    },
    {
      "bufferView": 3,
      "byteOffset": 48,
      "componentType": 5126,
      "count": 8661,
      "max": [
        0.999502956867218,
        0.9988749623298645,
        0.9999777674674988,
        1.0
      ],
      "min": [
        -0.9988728761672974,
        -0.999671220779419,
        -0.9997173547744751,
        1.0
      ],
      "type": "VEC4"
    },
    {
      "bufferView": 1,
      "byteOffset": 48,
      "componentType": 5126,
      "count": 8661,
      "max": [
        0.9900000095367432,
        0.9901999831199646
      ],
      "min": [
        0.00982499960809946,
        0.01435100007802248
      ],
      "type": "VEC2"
    },
    {
      "bufferView": 0,
      "byteOffset": 24,
      "componentType": 5125,
      "count": 41781,
      "type": "SCALAR"
    }
  ],
  "asset": {
    "extras": {
      "author": "Polenta (https://sketchfab.com/kln)",
      "license": "CC-BY-4.0 (http://creativecommons.org/licenses/by/4.0/)",
      "source": "https://sketchfab.com/3d-models/halloween-creature-75586b62dbde450ea459d514750f8a16",
      "title": "Halloween Creature"
    },
    "generator": "Sketchfab-12.67.0",
    "version": "2.0"
  },
  "bufferViews": [
    {
      "buffer": 0,
      "byteLength": 167148,
      "name": "floatBufferViews",
      "target": 34963
    },
    {
      "buffer": 0,
      "byteLength": 69336,
      "byteOffset": 167148,
      "byteStride": 8,
      "name": "floatBufferViews",
      "target": 34962
    },
    {
      "buffer": 0,
      "byteLength": 208008,
      "byteOffset": 236484,
      "byteStride": 12,
      "name": "floatBufferViews",
      "target": 34962
    },
    {
      "buffer": 0,
      "byteLength": 138624,
      "byteOffset": 444492,
      "byteStride": 16,
      "name": "floatBufferViews",
      "target": 34962
    }
  ],
  "buffers": [
    {
      "byteLength": 583116,
      "uri": "scene.bin"
    }
  ],
  "images": [
    {
      "uri": "textures/default_baseColor.png"
    },
    {
      "uri": "textures/default_metallicRoughness.png"
    },
    {
      "uri": "textures/default_emissive.png"
    },
    {
      "uri": "textures/default_normal.png"
    }
  ],
  "materials": [
    {
      "doubleSided": true,
      "emissiveFactor": [
        0.8,
        0.8,
        0.8
      ],
      "emissiveTexture": {
        "index": 2
      },
      "name": "default",
      "normalTexture": {
        "index": 3
      },
      "occlusionTexture": {
        "index": 1,
        "strength": 0.37
      },
      "pbrMetallicRoughness": {
        "baseColorTexture": {
          "index": 0
        },
        "metallicFactor": 0.0,
        "metallicRoughnessTexture": {
          "index": 1
        },
        "roughnessFactor": 0.23
      }
    }
  ],
  "meshes": [
    {
      "name": "Object_0",
      "primitives": [
        {
          "attributes": {
            "NORMAL": 1,
            "POSITION": 0,
            "TANGENT": 2,
            "TEXCOORD_0": 3
          },
          "indices": 4,
          "material": 0,
          "mode": 4
        }
      ]
    },
    {
      "name": "Object_1",
      "primitives": [
        {
          "attributes": {
            "NORMAL": 6,
            "POSITION": 5,
            "TEXCOORD_0": 7
          },
          "indices": 8,
          "material": 0,
          "mode": 4
        }
      ]
    },
    {
      "name": "Object_2",
      "primitives": [
        {
          "attributes": {
            "NORMAL": 10,
            "POSITION": 9,
            "TANGENT": 11,
            "TEXCOORD_0": 12
          },
          "indices": 13,
          "material": 0,
          "mode": 4
        }
      ]
    }
  ],
  "nodes": [
    {
      "children": [
        1
      ],
      "matrix": [
        0.16367283463478088,
        0.0,
        0.0,
        0.0,
        0.0,
        3.63426699034399e-17,
        -0.16367283463478088,
        0.0,
        0.0,
        0.16367283463478088,
        3.63426699034399e-17,
        0.0,
        0.0,
        0.0,
        0.0,
        1.0
      ],
      "name": "Sketchfab_model"
    },
    {
      "children": [
        2,
        3,
        4
      ],
      "matrix": [
        1.0,
        0.0,
        0.0,
        0.0,
        0.0,
        1.0,
        0.0,
        0.0,
        0.0,
        0.0,
        1.0,
        0.0,
        -2.402621030807495,
        -2.9926059246063232,
        -8.557499885559082,
        1.0
      ],
      "name": "Halloweencreature_LOW.OBJ.cleaner.gles"
    },
    {
      "mesh": 0,
      "name": "Object_2"
    },
    {
      "mesh": 1,
      "name": "Object_3"
    },
    {
      "mesh": 2,
      "name": "Object_4"
    }
  ],
  "samplers": [
    {
      "magFilter": 9729,
      "minFilter": 9987,
      "wrapS": 10497,
      "wrapT": 10497
    }
  ],
  "scene": 0,
  "scenes": [
    {
      "name": "Sketchfab_Scene",
      "nodes": [
        0
      ]
    }
  ],
  "textures": [
    {
      "sampler": 0,
      "source": 0
    },
    {
      "sampler": 0,
      "source": 1
    },
    {
      "sampler": 0,
      "source": 2
    },
    {
      "sampler": 0,
      "source": 3
    }
  ]
}
