{
  "accessors": [
    {
      "bufferView": 1,
      "componentType": 5126,
      "count": 10578,
      "max": [
        0.31426799297332764,
        0.08018500357866287,
        1.0026700496673584
      ],
      "min": [
        -0.3037340044975281,
        -0.05124000087380409,
        -0.5523939728736877
      ],
      "type": "VEC3"
    },
    {
      "bufferView": 1,
      "byteOffset": 126936,
      "componentType": 5126,
      "count": 10578,
      "max": [
        0.9999818205833435,
        1.0,
        0.9999858736991882
      ],
      "min": [
        -0.9999948740005493,
        -1.0,
        -0.9999958872795105
      ],
      "type": "VEC3"
    },
    {
      "bufferView": 2,
      "componentType": 5126,
      "count": 10578,
      "max": [
        1.0,
        1.0,
        1.0,
        1.0
      ],
      "min": [
        0.0,
        0.0,
        0.0,
        1.0
      ],
      "type": "VEC4"
    },
    {
      "bufferView": 0,
      "componentType": 5125,
      "count": 45930,
      "type": "SCALAR"
    }
  ],
  "asset": {
    "extras": {
      "author": "yotam92 (https://sketchfab.com/yotam92)",
      "license": "CC-BY-4.0 (http://creativecommons.org/licenses/by/4.0/)",
      "source": "https://sketchfab.com/3d-models/scary-acoustic-guitar-c7022e2914a34189ab11ce5c1240249e",
      "title": "Scary acoustic guitar"
    },
    "generator": "Sketchfab-14.48.0",
    "version": "2.0"
  },
  "bufferViews": [
    {
      "buffer": 0,
      "byteLength": 183720,
      "name": "floatBufferViews",
      "target": 34963
    },
    {
      "buffer": 0,
      "byteLength": 253872,
      "byteOffset": 183720,
      "byteStride": 12,
      "name": "floatBufferViews",
      "target": 34962
    },
    {
      "buffer": 0,
      "byteLength": 169248,
      "byteOffset": 437592,
      "byteStride": 16,
      "name": "floatBufferViews",
      "target": 34962
    }
  ],
  "buffers": [
    {
      "byteLength": 606840,
      "uri": "scene.bin"
    }
  ],
  "materials": [
    {
      "doubleSided": true,
      "name": "material_0",
      "pbrMetallicRoughness": {
        "metallicFactor": 0.0,
        "roughnessFactor": 0.6
      }
    }
  ],
  "meshes": [
    {
      "name": "Object_0",
      "primitives": [
        {
          "attributes": {
            "COLOR_0": 2,
            "NORMAL": 1,
            "POSITION": 0
          },
          "indices": 3,
          "material": 0,
          "mode": 4
        }
      ]
    }
  ],
  "nodes": [
    {
      "children": [
        1
      ],
      "matrix": [
        1.0,
        0.0,
        0.0,
        0.0,
        0.0,
        2.220446049250313e-16,
        -1.0,
        0.0,
        0.0,
        1.0,
        2.220446049250313e-16,
        0.0,
        0.0,
        0.0,
        0.0,
        1.0
      ],
      "name": "Sketchfab_model"
    },
    {
      "children": [
        2
      ],
      "name": "final_obj_e9dec9d4-65ee-11ed-8b55-06be23e0d4de.obj.cleaner.materialmerger.gles"
    },
    {
      "mesh": 0,
      "name": "Object_2"
    }
  ],
  "scene": 0,
  "scenes": [
    {
      "name": "Sketchfab_Scene",
      "nodes": [
        0
      ]
    }
  ]
}
