{
  "accessors": [
    {
      "bufferView": 2,
      "componentType": 5126,
      "count": 9272,
      "max": [
        2.0274739265441895,
        2.033658027648926,
        0.7800139784812927
      ],
      "min": [
        -1.9077870845794678,
        -1.908736228942871,
        -0.12649358808994293
      ],
      "type": "VEC3"
    },
    {
      "bufferView": 2,
      "byteOffset": 111264,
      "componentType": 5126,
      "count": 9272,
      "max": [
        1.0,
        1.0,
        1.0
      ],
      "min": [
        -1.0,
        -1.0,
        -0.0004546049749478698
      ],
      "type": "VEC3"
    },
    {
      "bufferView": 3,
      "componentType": 5126,
      "count": 9272,
      "max": [
        1.0,
        1.0,
        1.0,
        1.0
      ],
      "min": [
        -1.0,
        -1.0,
        -1.0,
        -1.0
      ],
      "type": "VEC4"
    },
    {
      "bufferView": 1,
      "componentType": 5126,
      "count": 9272,
      "max": [
        0.9999999403953552,
        0.999000072479248
      ],
      "min": [
        0.0,
        0.0
      ],
      "type": "VEC2"
    },
    {
      "bufferView": 1,
      "byteOffset": 74176,
      "componentType": 5126,
      "count": 9272,
      "max": [
        0.9999999403953552,
        0.999000072479248
      ],
      "min": [
        0.0,
        0.0
      ],
      "type": "VEC2"
    },
    {
      "bufferView": 1,
      "byteOffset": 148352,
      "componentType": 5126,
      "count": 9272,
      "max": [
        0.9999999403953552,
        0.999000072479248
      ],
      "min": [
        0.0,
        0.0
      ],
      "type": "VEC2"
    },
    {
      "bufferView": 0,
      "componentType": 5125,
      "count": 34269,
      "type": "SCALAR"
    },
    {
      "bufferView": 2,
      "byteOffset": 222528,
      "componentType": 5126,
      "count": 168,
      "max": [
        0.9949783086776733,
        1.00004243850708,
        0.026602819561958313
      ],
      "min": [
        -0.9949783086776733,
        -0.9899141192436218,
        -0.00014582648873329163
      ],
      "type": "VEC3"
    },
    {
      "bufferView": 2,
      "byteOffset": 224544,
      "componentType": 5126,
      "count": 168,
      "max": [
        1.0,
        1.0,
        1.0
      ],
      "min": [
        -1.0,
        -1.0,
        -1.0
      ],
      "type": "VEC3"
    },
    {
      "bufferView": 3,
      "byteOffset": 148352,
      "componentType": 5126,
      "count": 168,
      "max": [
        1.0,
        1.0,
        1.0,
        1.0
      ],
      "min": [
        -0.6087613701820374,
        -1.0,
        -1.0,
        -1.0
      ],
      "type": "VEC4"
    },
    {
      "bufferView": 1,
      "byteOffset": 222528,
      "componentType": 5126,
      "count": 168,
      "max": [
        1.0,
        1.0
      ],
      "min": [
        0.0,
        0.0
      ],
      "type": "VEC2"
    },
    {
      "bufferView": 1,
      "byteOffset": 223872,
      "componentType": 5126,
      "count": 168,
      "max": [
        1.0,
        1.0
      ],
      "min": [
        0.0,
        0.0
      ],
      "type": "VEC2"
    },
    {
      "bufferView": 1,
      "byteOffset": 225216,
      "componentType": 5126,
      "count": 168,
      "max": [
        1.0,
        1.0
      ],
      "min": [
        0.0,
        0.0
      ],
      "type": "VEC2"
    },
    {
      "bufferView": 0,
      "byteOffset": 137076,
      "componentType": 5125,
      "count": 324,
      "type": "SCALAR"
    }
  ],
  "asset": {
    "extras": {
      "author": "CMJ'S ART (https://sketchfab.com/cmjsart)",
      "license": "CC-BY-4.0 (http://creativecommons.org/licenses/by/4.0/)",
      "source": "https://sketchfab.com/3d-models/maze-grass-wall-by-cmjs-art-2baee0c456f7446ebb696a7cff8771ad",
      "title": "Maze Grass Wall by CMJ'S ART"
    },
    "generator": "Sketchfab-14.35.0",
    "version": "2.0"
  },
  "bufferViews": [
    {
      "buffer": 0,
      "byteLength": 138372,
      "name": "floatBufferViews",
      "target": 34963
    },
    {
      "buffer": 0,
      "byteLength": 226560,
      "byteOffset": 138372,
      "byteStride": 8,
      "name": "floatBufferViews",
      "target": 34962
    },
    {
      "buffer": 0,
      "byteLength": 226560,
      "byteOffset": 364932,
      "byteStride": 12,
      "name": "floatBufferViews",
      "target": 34962
    },
    {
      "buffer": 0,
      "byteLength": 151040,
      "byteOffset": 591492,
      "byteStride": 16,
      "name": "floatBufferViews",
      "target": 34962
    }
  ],
  "buffers": [
    {
      "byteLength": 742532,
      "uri": "scene.bin"
    }
  ],
  "images": [
    {
      "uri": "textures/Grass2_baseColor.png"
    },
    {
      "uri": "textures/Grass2_normal.png"
    },
    {
      "uri": "textures/Dirt_baseColor.png"
    },
    {
      "uri": "textures/Dirt_normal.png"
    }
  ],
  "materials": [
    {
      "doubleSided": true,
      "name": "Grass2",
      "normalTexture": {
        "index": 1,
        "texCoord": 1
      },
      "pbrMetallicRoughness": {
        "baseColorTexture": {
          "index": 0
        },
        "metallicFactor": 0.0,
        "roughnessFactor": 0.8211145618000169
      }
    },
    {
      "doubleSided": true,
      "name": "Dirt",
      "normalTexture": {
        "index": 3
      },
      "pbrMetallicRoughness": {
        "baseColorTexture": {
          "index": 2
        },
        "metallicFactor": 0.0,
        "roughnessFactor": 0.8211145618000169
      }
    }
  ],
  "meshes": [
    {
      "name": "Plane_Grass2_0",
      "primitives": [
        {
          "attributes": {
            "NORMAL": 1,
            "POSITION": 0,
            "TANGENT": 2,
            "TEXCOORD_0": 3,
            "TEXCOORD_1": 4,
            "TEXCOORD_2": 5
          },
          "indices": 6,
          "material": 0,
          "mode": 4
        }
      ]
    },
    {
      "name": "Plane.001_Dirt_0",
      "primitives": [
        {
          "attributes": {
            "NORMAL": 8,
            "POSITION": 7,
            "TANGENT": 9,
            "TEXCOORD_0": 10,
            "TEXCOORD_1": 11,
            "TEXCOORD_2": 12
          },
          "indices": 13,
          "material": 1,
          "mode": 4
        }
      ]
    }
  ],
  "nodes": [
    {
      "children": [
        1
      ],
      "matrix": [
        1.0,
        0.0,
        0.0,
        0.0,
        0.0,
        2.220446049250313e-16,
        -1.0,
        0.0,
        0.0,
        1.0,
        2.220446049250313e-16,
        0.0,
        0.0,
        0.0,
        0.0,
        1.0
      ],
      "name": "Sketchfab_model"
    },
    {
      "children": [
        2
      ],
      "matrix": [
        0.009999999776482582,
        0.0,
        0.0,
        0.0,
        0.0,
        0.0,
        0.009999999776482582,
        0.0,
        0.0,
        -0.009999999776482582,
        0.0,
        0.0,
        0.0,
        0.0,
        0.0,
        1.0
      ],
      "name": "89efd549b22244a3a316b5c6dbcea667.fbx"
    },
    {
      "children": [
        3,
        5
      ],
      "name": "RootNode"
    },
    {
      "children": [
        4
      ],
      "matrix": [
        990.704345703125,
        0.0,
        0.0,
        0.0,
        -0.0,
        -0.00016140622507839294,
        -990.7043457031119,
        0.0,
        0.0,
        990.7043457031119,
        -0.00016140622507839294,
        0.0,
        -55.01715087890625,
        167.84231567382813,
        0.0,
        1.0
      ],
      "name": "Plane"
    },
    {
      "mesh": 0,
      "name": "Plane_Grass2_0"
    },
    {
      "children": [
        6
      ],
      "matrix": [
        1949.623291015625,
        0.0,
        0.0,
        0.0,
        0.0,
        -0.0003176339511304039,
        -1949.6232910155993,
        0.0,
        0.0,
        1949.6232910155993,
        -0.0003176339511304039,
        0.0,
        11.16372299194336,
        -8.544252395629883,
        -49.36555480957031,
        1.0
      ],
      "name": "Plane.001"
    },
    {
      "mesh": 1,
      "name": "Plane.001_Dirt_0"
    }
  ],
  "samplers": [
    {
      "magFilter": 9729,
      "minFilter": 9987,
      "wrapS": 10497,
      "wrapT": 10497
    }
  ],
  "scene": 0,
  "scenes": [
    {
      "name": "Sketchfab_Scene",
      "nodes": [
        0
      ]
    }
  ],
  "textures": [
    {
      "sampler": 0,
      "source": 0
    },
    {
      "sampler": 0,
      "source": 1
    },
    {
      "sampler": 0,
      "source": 2
    },
    {
      "sampler": 0,
      "source": 3
    }
  ]
}
